<svg xmlns:xlink="http://www.w3.org/1999/xlink" xmlns="http://www.w3.org/2000/svg" aria-hidden="true" class="native w48 h48 wmx75 svg-icon iconJira" width="18" height="18" viewBox="0 0 18 18"><path fill="#2684FF" d="M16.36 1H8.78a3.42 3.42 0 0 0 3.42 3.42h1.4v1.35A3.42 3.42 0 0 0 17 9.2V1.66a.66.66 0 0 0-.64-.66Z"></path><path fill="url(&quot;#Jiraa&quot;)" d="M12.33 5H4.74a3.42 3.42 0 0 0 3.42 3.43h1.4v1.35a3.42 3.42 0 0 0 3.42 3.42V5.66a.66.66 0 0 0-.65-.66Z"></path><path fill="url(&quot;#Jirab&quot;)" d="M8.36 9H.76a3.42 3.42 0 0 0 3.44 3.42h1.4v1.35a3.42 3.42 0 0 0 3.42 3.43V9.66A.66.66 0 0 0 8.36 9Z"></path><defs><linearGradient id="Jiraa" x1="12.82" x2="9.6" y1="5.02" y2="8.34" gradientUnits="userSpaceOnUse"><stop offset=".18" stop-color="#0052CC"></stop><stop offset="1" stop-color="#2684FF"></stop></linearGradient><linearGradient id="Jirab" x1="346.65" x2="210.84" y1="327.03" y2="460.17" gradientUnits="userSpaceOnUse"><stop offset=".18" stop-color="#0052CC"></stop><stop offset="1" stop-color="#2684FF"></stop></linearGradient><linearGradient id="Jiraa" x1="12.82" x2="9.6" y1="5.02" y2="8.34" gradientUnits="userSpaceOnUse"><stop offset=".18" stop-color="#0052CC"></stop><stop offset="1" stop-color="#2684FF"></stop></linearGradient><linearGradient id="Jirab" x1="346.65" x2="210.84" y1="327.03" y2="460.17" gradientUnits="userSpaceOnUse"><stop offset=".18" stop-color="#0052CC"></stop><stop offset="1" stop-color="#2684FF"></stop></linearGradient><linearGradient id="Jiraa" x1="12.82" x2="9.6" y1="5.02" y2="8.34" gradientUnits="userSpaceOnUse"><stop offset=".18" stop-color="#0052CC"></stop><stop offset="1" stop-color="#2684FF"></stop></linearGradient><linearGradient id="Jirab" x1="346.65" x2="210.84" y1="327.03" y2="460.17" gradientUnits="userSpaceOnUse"><stop offset=".18" stop-color="#0052CC"></stop><stop offset="1" stop-color="#2684FF"></stop></linearGradient></defs></svg>