<svg xmlns:xlink="http://www.w3.org/1999/xlink" xmlns="http://www.w3.org/2000/svg" aria-hidden="true" class="fc-black-900 mb8 svg-icon iconLabs" width="42" height="18"><path d="M11.5 13.624a.374.374 0 0 1-.37.376H5.361a.374.374 0 0 1-.37-.376V4.376c0-.207.165-.376.37-.376H6.62c.204 0 .37.169.37.376v7.611h4.138c.205 0 .371.169.371.377v1.26zm9.432.215c-.07.1-.185.161-.308.161H19.13a.376.376 0 0 1-.356-.254l-.55-1.7h-3.111l-.55 1.7a.377.377 0 0 1-.355.254h-1.494a.376.376 0 0 1-.353-.506l3.39-9.247A.376.376 0 0 1 16.103 4h1.13c.158 0 .299.099.353.247l3.39 9.247a.376.376 0 0 1-.045.345zm-4.157-7.386l-1.219 3.531h2.266l-1.047-3.53zm13.335 5.71a.37.37 0 0 0-.003.524c.956.971 2.047 1.313 3.486 1.313 1.014 0 1.92-.265 2.582-.788.67-.53 1.063-1.306 1.063-2.255 0-.855-.268-1.622-.867-2.145-.456-.41-1.008-.633-1.89-.767l-1.037-.153c-.377-.057-.672-.19-.832-.332-.146-.132-.221-.315-.221-.568 0-.309.11-.56.306-.737.199-.179.518-.312.986-.312.708 0 1.254.151 1.726.601a.37.37 0 0 0 .516-.004l.883-.87a.37.37 0 0 0-.008-.534C35.942 4.334 35.004 4 33.721 4c-1.016 0-1.872.292-2.479.836-.61.548-.935 1.32-.935 2.207 0 .82.243 1.502.781 2.01h.001c.468.437 1.135.716 1.93.826l1.072.153c.508.073.647.147.795.286l.008.007c.14.125.234.34.234.67 0 .332-.124.567-.344.73-.235.174-.617.293-1.165.293-.867 0-1.49-.185-2.066-.76a.37.37 0 0 0-.522-.003l-.92.908zM22.37 14a.374.374 0 0 1-.37-.376V4.376c0-.207.166-.376.37-.376h3.543c.913 0 1.697.264 2.257.78.564.519.863 1.259.863 2.129 0 .845-.377 1.524-.87 1.947.57.433 1.01 1.145 1.01 2.157 0 .941-.317 1.702-.894 2.224-.57.517-1.354.763-2.225.763H22.37zm3.543-1.977c.96 0 .959-1.01.959-1.01s0-1.013-.959-1.013H24v2.023h1.913zm-.115-4.063c1.074 0 1.074-1.015 1.074-1.015s0-1.016-1.074-1.016H24V7.96h1.798z" fill="#0C0D0E"></path><path d="M0 4v10a4 4 0 0 0 4 4h34a4 4 0 0 0 4-4V4a4 4 0 0 0-4-4H4a4 4 0 0 0-4 4zm4-2h34a2 2 0 0 1 2 2v10a2 2 0 0 1-2 2H4a2 2 0 0 1-2-2V4a2 2 0 0 1 2-2z" fill="#0C0D0E"></path></svg>